<?xml version="1.0" encoding="UTF-8" standalone="no"?><!DOCTYPE svg PUBLIC "-//W3C//DTD SVG 1.1//EN" "http://www.w3.org/Graphics/SVG/1.1/DTD/svg11.dtd"><svg width="100%" height="100%" viewBox="0 0 2092 620" version="1.1" xmlns="http://www.w3.org/2000/svg" xmlns:xlink="http://www.w3.org/1999/xlink" xml:space="preserve" xmlns:serif="http://www.serif.com/" style="fill-rule:evenodd;clip-rule:evenodd;stroke-linejoin:round;stroke-miterlimit:2;"><g id="Layer-1" serif:id="Layer 1"><path id="path224" d="M859.608,217.979c-0,42.618 -25.206,60.464 -55.75,60.464c-30.545,-0 -56.087,-17.846 -56.087,-60.464l0,-79.32l27.562,0l0,77.348c0,22.607 9.524,36.268 28.525,36.268c19.048,0 28.187,-13.661 28.187,-36.268l0,-77.348l27.563,0" style="fill:#fff;fill-rule:nonzero;"/><path id="path226" d="M921.851,218.989l-11.496,-0l-0,58.492l-26.6,-0l-0,-138.822l26.6,0l-0,54.547l11.063,0l35.115,-54.547l30.352,0l-43.244,67.439l49.16,71.383l-30.496,-0" style="fill:#fff;fill-rule:nonzero;"/><path id="path228" d="M1087.42,201.913l21.79,-0c11.304,-0 18.856,-8.707 18.856,-20.203c0,-11.496 -7.744,-18.279 -18.856,-18.279l-21.79,0m45.985,114.05l-29.534,-50.988l-16.451,-0l0,50.988l-25.205,-0l-0,-138.822l48.967,0c22.801,0 43.052,15.296 43.052,42.618c-0,19.048 -10.727,33.527 -25.013,40.454l33.527,55.75" style="fill:#fff;fill-rule:nonzero;"/><path id="path230" d="M1193.29,215.381l44.59,0c-2.982,-11.688 -11.111,-16.451 -21.02,-16.451c-10.871,0 -19.626,6.158 -23.57,16.451m70.758,20.059l-72.345,-0c2.982,15.056 15.248,20.635 25.975,20.635c13.468,0 19.24,-8.369 19.24,-8.369l24.965,-0c-7.552,19.866 -25.59,30.737 -45.023,30.737c-26.745,-0 -50.17,-20.396 -50.17,-51.325c-0,-30.737 23.233,-49.785 49.4,-49.785c25.398,-0 51.132,17.653 47.958,58.107" style="fill:#fff;fill-rule:nonzero;"/><path id="path232" d="M1318.21,198.353c-8.369,0 -11.929,4.137 -11.929,8.322c0,6.734 8.947,8.754 14.912,9.909c17.605,3.752 35.499,9.139 35.499,30.16c-0,20.395 -16.884,31.699 -37.279,31.699c-22.849,-0 -40.454,-13.854 -41.656,-34.874l24.387,-0c0.578,5.916 4.57,13.661 16.644,13.661c10.101,-0 12.506,-5.34 12.506,-9.524c-0,-7.312 -6.927,-9.525 -13.709,-11.064c-11.689,-2.597 -36.846,-7.359 -36.846,-29.967c-0,-19.433 18.615,-29.342 37.856,-29.342c22.223,-0 36.894,13.468 38.097,30.16l-24.436,-0c-0.77,-3.368 -3.944,-9.14 -14.046,-9.14" style="fill:#fff;fill-rule:nonzero;"/><path id="path234" d="M1395.51,215.381l44.638,0c-2.982,-11.688 -11.111,-16.451 -21.02,-16.451c-10.919,0 -19.626,6.158 -23.618,16.451m70.805,20.059l-72.393,-0c2.983,15.056 15.297,20.635 25.975,20.635c13.517,0 19.241,-8.369 19.241,-8.369l24.965,-0c-7.504,19.866 -25.542,30.737 -44.975,30.737c-26.793,-0 -50.17,-20.396 -50.17,-51.325c-0,-30.737 23.185,-49.785 49.352,-49.785c25.398,-0 51.18,17.653 48.005,58.107" style="fill:#fff;fill-rule:nonzero;"/><path id="path236" d="M1540.25,235.825l-0,-1.973c-18.038,1.973 -35.884,4.137 -35.884,14.479c-0,15.056 34.296,13.853 35.884,-12.506m36.124,22.607l0,19.049l-5.964,-0c-11.497,-0 -19.626,-4.185 -22.993,-12.699c-5.965,8.129 -15.874,13.661 -31.362,13.661c-22.368,-0 -36.654,-11.497 -36.654,-29.342c0,-30.93 42.233,-33.672 61.234,-34.682c-0.385,-11.496 -6.735,-15.681 -16.836,-15.681c-14.094,0 -15.056,8.514 -15.056,8.514l-24.772,0c1.78,-17.605 16.21,-29.919 40.453,-29.919c23.57,-0 40.213,11.689 40.213,40.453l0,26.36c0,11.496 4.185,14.286 11.737,14.286" style="fill:#fff;fill-rule:nonzero;"/><path id="path238" d="M1654.49,177.333l0,25.398c-2.02,-0.433 -5.387,-0.818 -8.754,-0.818c-13.853,-0 -28.332,7.119 -28.332,25.397l-0,50.171l-26.408,-0l0,-99.138l20.251,-0l3.559,10.871l3.175,-0c4.377,-4.329 14.094,-11.881 30.352,-11.881" style="fill:#fff;fill-rule:nonzero;"/><path id="path240" d="M1710.58,278.443c-27.562,-0 -50.17,-21.213 -50.17,-50.363c-0,-29.534 23.377,-50.747 51.18,-50.747c22.608,-0 41.8,14.094 47.38,37.279l-26.985,-0c-4.137,-8.13 -11.496,-13.276 -21.02,-13.276c-13.854,-0 -24.965,11.111 -24.965,26.552c-0,15.488 11.111,26.6 24.965,26.6c8.947,-0 15.873,-4.57 20.251,-11.929l27.129,-0c-6.349,23.618 -26.745,35.884 -47.765,35.884" style="fill:#fff;fill-rule:nonzero;"/><path id="path242" d="M1869.79,223.751l-0,53.73l-26.553,-0l0,-47.814c0,-9.716 1.588,-29.342 -16.258,-29.342c-8.754,0 -25.59,4.57 -25.59,30.545l-0,46.611l-26.6,-0l-0,-140.794l25.205,-0l-0,51.95l3.367,-0c4.762,-4.955 13.902,-11.304 28.572,-11.304c25.543,-0 37.857,19.048 37.857,46.418" style="fill:#fff;fill-rule:nonzero;"/><path id="path244" d="M806.648,438.958l-0,-2.02c-18.039,2.02 -35.884,4.185 -35.884,14.478c-0,15.056 34.296,13.902 35.884,-12.458m36.076,22.56l-0,19.048l-5.917,0c-11.496,0 -19.673,-4.137 -22.992,-12.699c-5.965,8.129 -15.874,13.709 -31.363,13.709c-22.415,0 -36.653,-11.496 -36.653,-29.342c-0,-30.929 42.233,-33.719 61.233,-34.729c-0.384,-11.497 -6.734,-15.633 -16.835,-15.633c-14.094,-0 -15.056,8.514 -15.056,8.514l-24.82,-0c1.779,-17.654 16.258,-29.92 40.453,-29.92c23.618,0 40.261,11.689 40.261,40.406l0,26.408c0,11.496 4.185,14.238 11.689,14.238" style="fill:#fff;fill-rule:nonzero;"/><path id="path246" d="M952.588,426.836l0,53.73l-26.36,0l0,-47.765c0,-3.367 2.357,-28.38 -16.691,-29.342c-9.283,-0.625 -25.975,4.57 -25.975,30.545l0,46.562l-26.167,0l-0,-99.138l20.251,0l3.367,12.122l3.367,0c4.137,-5.003 13.468,-13.132 30.112,-13.132c25.59,0 38.096,19.049 38.096,46.418" style="fill:#fff;fill-rule:nonzero;"/><path id="path248" d="M1041.38,431.021c-0,-16.451 -8.899,-26.215 -21.79,-26.215c-12.074,-0 -24.195,8.754 -24.195,26.215c-0,17.413 12.121,26.168 24.195,26.168c12.891,-0 21.79,-9.717 21.79,-26.168m24.82,-91.249l0,140.794l-19.433,0l-2.79,-9.524l-2.982,-0c-6.157,6.734 -14.479,10.534 -25.157,10.534c-25.205,0 -46.226,-20.635 -46.226,-50.555c0,-29.967 21.021,-50.555 46.226,-50.555c10.294,0 19.241,3.56 25.542,10.679l-0,-51.373" style="fill:#fff;fill-rule:nonzero;"/><rect id="path250" x="1143.5" y="341.793" width="27.562" height="138.773" style="fill:#fff;fill-rule:nonzero;"/><path id="path252" d="M1290.84,426.836l0,53.73l-26.359,0l-0,-47.765c-0,-3.367 2.357,-28.38 -16.692,-29.342c-9.331,-0.625 -25.975,4.57 -25.975,30.545l0,46.562l-26.167,0l0,-99.138l20.203,0l3.415,12.122l3.367,0c4.137,-5.003 13.469,-13.132 30.112,-13.132c25.59,0 38.096,19.049 38.096,46.418" style="fill:#fff;fill-rule:nonzero;"/><path id="path254" d="M1407.39,426.836l-0,53.73l-26.36,0l0,-47.765c0,-3.367 2.405,-28.38 -16.643,-29.342c-9.332,-0.625 -25.975,4.57 -25.975,30.545l0,46.562l-26.167,0l-0,-99.138l20.202,0l3.416,12.122l3.319,0c4.184,-5.003 13.516,-13.132 30.159,-13.132c25.59,0 38.049,19.049 38.049,46.418" style="fill:#fff;fill-rule:nonzero;"/><path id="path256" d="M1499.79,431.021c0,-15.489 -9.139,-27.61 -24.195,-27.61c-15.056,-0 -25.157,12.121 -25.157,27.61c-0,15.441 10.101,27.563 25.157,27.563c15.056,-0 24.195,-12.122 24.195,-27.563m-75.327,0.193c-0,-31.747 24.58,-50.748 51.132,-50.748c26.793,0 50.17,19.193 50.17,50.363c0,31.507 -24.195,50.747 -50.94,50.747c-26.985,0 -50.362,-19.24 -50.362,-50.362" style="fill:#fff;fill-rule:nonzero;"/><path id="path258" d="M1634.05,381.428l-32.132,99.138l-38.481,0l-32.132,-99.138l26.408,0l22.992,72.971l3.945,-0l23.04,-72.971" style="fill:#fff;fill-rule:nonzero;"/><path id="path260" d="M1703.65,438.958l0,-2.02c-18.038,2.02 -35.884,4.185 -35.884,14.478c0,15.056 34.297,13.902 35.884,-12.458m36.077,22.56l-0,19.048l-5.965,0c-11.496,0 -19.626,-4.137 -22.993,-12.699c-5.964,8.129 -15.873,13.709 -31.314,13.709c-22.415,0 -36.702,-11.496 -36.702,-29.342c0,-30.929 42.234,-33.719 61.282,-34.729c-0.384,-11.497 -6.734,-15.633 -16.835,-15.633c-14.094,-0 -15.104,8.514 -15.104,8.514l-24.773,-0c1.78,-17.654 16.259,-29.92 40.454,-29.92c23.569,0 40.213,11.689 40.213,40.406l-0,26.408c-0,11.496 4.185,14.238 11.737,14.238" style="fill:#fff;fill-rule:nonzero;"/><path id="path262" d="M1819.43,473.255c0,-0 -8.37,8.321 -23.618,8.321c-19,0 -35.499,-12.891 -35.499,-32.95l0,-45.985l-19.818,0l0,-19.433l9.909,0c6.734,0 11.304,-4.521 11.304,-11.689l0,-19.817l24.003,-0l-0,29.726l25.013,0l-0,21.213l-25.013,0l-0,44.446c-0,6.734 5.532,11.881 12.699,11.881c5.916,0 11.496,-3.367 11.496,-3.367" style="fill:#fff;fill-rule:nonzero;"/><path id="path264" d="M1855.7,480.566l-25.398,0l0,-99.138l25.398,0l-0,99.138Zm-29.727,-126.892c-0,-9.524 7.744,-16.836 17.028,-16.836c9.139,0 16.643,7.312 16.643,16.836c0,8.947 -7.504,16.643 -16.643,16.643c-9.284,-0 -17.028,-7.696 -17.028,-16.643" style="fill:#fff;fill-rule:nonzero;"/><path id="path266" d="M1949.5,431.021c0,-15.489 -9.139,-27.61 -24.195,-27.61c-15.056,-0 -25.205,12.121 -25.205,27.61c-0,15.441 10.149,27.563 25.205,27.563c15.056,-0 24.195,-12.122 24.195,-27.563m-75.375,0.193c-0,-31.747 24.58,-50.748 51.18,-50.748c26.745,0 50.17,19.193 50.17,50.363c0,31.507 -24.195,50.747 -50.988,50.747c-26.937,0 -50.362,-19.24 -50.362,-50.362" style="fill:#fff;fill-rule:nonzero;"/><path id="path268" d="M2087.5,426.836l-0,53.73l-26.36,0l0,-47.765c0,-3.367 2.357,-28.38 -16.691,-29.342c-9.332,-0.625 -25.975,4.57 -25.975,30.545l-0,46.562l-26.167,0l-0,-99.138l20.202,0l3.416,12.122l3.367,0c4.136,-5.003 13.468,-13.132 30.111,-13.132c25.59,0 38.097,19.049 38.097,46.418" style="fill:#fff;fill-rule:nonzero;"/><path id="path272" d="M615.058,615.01l-610.891,0l-0,-610.843l610.891,-0l0,610.843Zm-67.246,-543.597l-71.238,-0l-95.723,101.975l0,-101.975l-138.388,-0l-0,135.358c-0,28.957 -21.454,45.793 -49.93,45.793c-28.428,-0 -49.881,-16.836 -49.881,-45.793l-0,-135.358l-71.239,-0l-0,136.368c-0,61.089 49.304,96.156 104.958,101.832l-104.958,-0l-0,238.199l71.239,0l-0,-88.315l31.073,0l65.852,88.315l308.235,0l0,-48.102l-83.504,0l-0,-141.996l83.504,0l0,-62.869l-102.072,-104.525l102.072,-104.188l0,-14.719Zm-154.695,428.297l-83.504,0l-0,33.383l-58.781,-77.059c44.735,-8.225 67.872,-31.362 67.872,-71.623c-0,-9.957 -1.443,-18.856 -4.233,-26.697l78.646,0l0,141.996Zm-250.465,-141.996l65.177,0c26.745,0 37.616,10.39 37.616,26.697c-0,16.306 -10.871,26.985 -37.616,26.985l-65.177,-0l-0,-53.682Zm166.961,-120.976l-0,110.49c-15.152,-25.59 -50.026,-37.519 -101.784,-37.615c46.178,-4.714 88.844,-29.631 101.784,-72.875Zm166.961,72.875l-95.723,-0l0,-102.265l95.723,102.265Z" style="fill:#fff;fill-rule:nonzero;"/></g></svg>