<?xml version="1.0" encoding="UTF-8" standalone="no"?><!DOCTYPE svg PUBLIC "-//W3C//DTD SVG 1.1//EN" "http://www.w3.org/Graphics/SVG/1.1/DTD/svg11.dtd"><svg width="100%" height="100%" viewBox="0 0 2109 780" version="1.1" xmlns="http://www.w3.org/2000/svg" xmlns:xlink="http://www.w3.org/1999/xlink" xml:space="preserve" xmlns:serif="http://www.serif.com/" style="fill-rule:evenodd;clip-rule:evenodd;stroke-linejoin:round;stroke-miterlimit:2;"><g><path d="M1210,766.3l-2.296,-6.975c-10.112,3.129 -16.608,4.446 -21.546,4.446c-13.737,-0 -21.32,-12.158 -21.32,-34.313c-0,-20.6 8.066,-31.933 22.754,-31.933c5.191,0 11.083,0.729 18.783,2.408l1.7,-7.212c-7.467,-2.284 -15.175,-3.596 -20.962,-3.596c-21.08,-0 -32.617,14.675 -32.617,41.654c-0,26.133 11.304,41.534 30.087,41.534c6.513,-0 15.775,-2.171 25.417,-6.013Z" style="fill:#fff;fill-rule:nonzero;"/><path d="M1283.27,770.75l-0,-80.313l-9.609,0l0,34.446l-38.554,0l0,-34.446l-9.629,0l0,80.313l9.629,0l0,-38.654l38.554,-0l0,38.654l9.609,0Z" style="fill:#fff;fill-rule:nonzero;"/><rect x="1302.73" y="690.429" width="9.613" height="80.329" style="fill:#fff;fill-rule:nonzero;"/><path d="M1389.7,770.75l0,-80.313l-8.05,0l0,71.413l-36.129,-71.413l-13.717,0l0,80.313l8.054,0l0,-70.454l36.146,70.454l13.696,0Z" style="fill:#fff;fill-rule:nonzero;"/><path d="M1419.97,741.858l14.45,-43.116l14.933,43.116l-29.383,0Zm20.6,-51.421l-10.95,0l-28.554,80.313l8.679,0l7.708,-21.554l34.679,-0l7.821,21.554l9.879,0l-29.262,-80.313Z" style="fill:#fff;fill-rule:nonzero;"/><path d="M1674.39,770.758l-2.642,-80.333l-13.721,-0l-23.133,72.646l-23.371,-72.646l-13.725,-0l-2.654,80.333l8.904,0l1.575,-71.062l22.875,71.062l11.575,0l23.125,-71.062l1.329,71.062l9.863,0Z" style="fill:#fff;fill-rule:nonzero;"/><path d="M1704.62,741.858l14.446,-43.129l14.945,43.129l-29.391,0Zm20.596,-51.433l-10.963,-0l-28.541,80.333l8.675,0l7.704,-21.562l34.7,-0l7.825,21.562l9.879,0l-29.279,-80.333Z" style="fill:#fff;fill-rule:nonzero;"/><path d="M1812.14,770.758l0,-7.212l-35.879,-0l0,-73.121l-9.616,-0l-0,80.333l45.495,0Z" style="fill:#fff;fill-rule:nonzero;"/><path d="M1838.05,741.858l14.441,-43.129l14.95,43.129l-29.391,0Zm20.587,-51.433l-10.962,-0l-28.534,80.333l8.671,0l7.705,-21.562l34.687,-0l7.838,21.562l9.879,0l-29.284,-80.333Z" style="fill:#fff;fill-rule:nonzero;"/><path d="M1946.89,690.425l-9.641,-0l-21.308,37.096l-21.917,-37.096l-11.067,-0l27.333,45.158l0,35.175l9.634,0l-0,-35.175l26.966,-45.158Z" style="fill:#fff;fill-rule:nonzero;"/><path d="M2000.28,747.879c0,-12.166 -4.566,-17.467 -22.15,-22.883c-15.066,-4.579 -17.116,-6.754 -17.116,-13.975c-0,-8.567 6.137,-13.379 14.941,-13.379c4.938,-0 11.104,0.85 19.033,2.529l1.684,-7.096c-7.458,-2.171 -14.679,-3.375 -21.071,-3.375c-14.717,-0 -24.2,8.429 -24.2,22.158c-0,18.554 18.529,19.638 31.542,25.55c6.271,2.759 7.725,5.775 7.725,11.684c-0,8.662 -7.592,14.454 -17.846,14.454c-5.771,-0 -12.167,-1.088 -20.217,-3.133l-2.058,7.341c8.912,2.646 15.279,3.721 22.887,3.721c16.259,0 26.846,-9.017 26.846,-23.596Z" style="fill:#fff;fill-rule:nonzero;"/><rect x="2015.25" y="690.417" width="9.642" height="80.346" style="fill:#fff;fill-rule:nonzero;"/><path d="M2055.91,741.858l14.462,-43.129l14.929,43.129l-29.391,0Zm20.604,-51.433l-10.963,-0l-28.55,80.333l8.671,0l7.721,-21.562l34.687,-0l7.825,21.562l9.875,0l-29.266,-80.333Z" style="fill:#fff;fill-rule:nonzero;"/><path d="M966.488,738.125l-0,-47.592l-8.042,0l-0,51.084c-0,7.333 -0.6,11.425 -2.283,14.425c-2.884,5.291 -8.9,8.058 -17.555,8.058c-13.466,0 -20.079,-6.004 -20.079,-19.354l0,-54.213l-9.604,0l-0,47.117c-0,15.275 0.6,19.121 4.2,24.283c4.325,6.242 13.458,10.079 24.042,10.079c9.975,0 17.675,-2.512 22.721,-7.312c5.52,-5.404 6.6,-9.608 6.6,-26.575Z" style="fill:#fff;fill-rule:nonzero;"/><path d="M1040.6,770.692l-36.9,-42.905l35.938,-37.254l-11.421,0l-34.854,36.534l-0,-36.534l-9.6,0l-0,80.159l9.6,-0l-0,-41.346l35.22,41.346l12.017,-0Z" style="fill:#fff;fill-rule:nonzero;"/><rect x="1091.79" y="682.363" width="3.792" height="96.712" style="fill:#fff;fill-rule:nonzero;"/><rect x="1524.83" y="682.363" width="3.792" height="96.712" style="fill:#fff;fill-rule:nonzero;"/><path d="M2075.4,572.554l0,-96.537c0,-12.109 -6.596,-22.221 -22.75,-22.221c-9.088,-0 -15.667,2.537 -21.229,8.083c1.525,4.542 2.029,9.104 2.029,18.692l0,91.983l-30.833,0l-0,-96.537c-0,-11.1 -3.029,-22.734 -22.75,-22.734c-10.084,0 -13.65,1.525 -19.188,4.063l0,115.208l-30.833,0l-0,-127.337c11.637,-5.063 28.283,-11.121 51.541,-11.121c19.213,-0 31.846,4.529 39.425,11.121c9.105,-6.592 21.213,-11.121 38.926,-11.121c32.325,-0 46.479,18.691 46.479,41.921l-0,96.537l-30.817,0Z" style="fill:#fff;fill-rule:nonzero;"/><path d="M1750.62,572.554l-0,-94.504c-0,-13.133 -5.563,-22.725 -22.738,-22.725c-9.621,-0 -16.183,2.512 -22.729,6.554l0,110.675l-30.833,0l-0,-181.921l30.833,0l0,50.542c8.067,-3.546 19.688,-6.071 30.317,-6.071c33.862,0 45.967,20.221 45.967,40.913l-0,96.537l-30.817,0Z" style="fill:#fff;fill-rule:nonzero;"/><path d="M1375.05,416.996c-11.729,-0 -17.85,-7.671 -17.85,-16.334c-0,-8.641 6.121,-16.295 17.85,-16.295c11.196,-0 17.817,7.654 17.817,16.295c-0,8.663 -6.621,16.334 -17.817,16.334Z" style="fill:#fff;fill-rule:nonzero;"/><path d="M1489.36,572.554l0,-96.537c0,-11.1 -4.545,-22.734 -24.27,-22.734c-10.096,0 -15.163,1.525 -20.725,4.063l-0,115.208l-30.813,0l0,-127.337c11.617,-5.063 29.8,-11.121 53.058,-11.121c40.425,-0 53.571,19.7 53.571,41.441l0,97.017l-30.821,0Z" style="fill:#fff;fill-rule:nonzero;"/><rect x="1359.61" y="436.621" width="30.85" height="135.933" style="fill:#fff;fill-rule:nonzero;"/><path d="M1319.29,574.058c-26.787,0 -37.391,-15.15 -37.391,-36.883l-0,-80.842l-15.167,0l0,-19.712l15.167,-0l-0,-27.304l30.825,-8.571l-0,35.875l21.737,-0l0,19.712l-21.737,0l-0,80.842c-0,12.121 6.566,15.679 15.171,15.679c2.521,0 6.054,0 9.096,-0.508l-0,20.208c-3.042,0.492 -11.13,1.504 -17.701,1.504Z" style="fill:#fff;fill-rule:nonzero;"/><path d="M1237,574.058c-26.788,0 -37.4,-15.15 -37.4,-36.883l-0,-80.842l-15.158,0l-0,-19.712l15.158,-0l-0,-27.304l30.837,-8.571l0,35.875l21.721,-0l0,19.712l-21.721,0l0,80.842c0,12.121 6.563,15.679 15.167,15.679c2.529,0 6.058,0 9.092,-0.508l-0,20.208c-3.034,0.492 -11.121,1.504 -17.696,1.504Z" style="fill:#fff;fill-rule:nonzero;"/><path d="M1013.02,572.554l-64.692,-109.15c-4.038,-6.575 -7.063,-13.137 -10.6,-21.221l-0.504,0c1,8.571 1.512,15.654 1.512,22.221l0,108.15l-29.808,0l-0,-173.333l31.833,-0l60.138,102.079c3.533,6.058 6.558,11.621 9.604,19.692l0.504,-0c-1.025,-8.584 -1.025,-14.634 -1.025,-20.704l0,-101.067l29.817,-0l-0,173.333l-26.779,0Z" style="fill:#fff;fill-rule:nonzero;"/><path d="M1875.83,555.362c-3.55,1.513 -11.133,3.546 -18.183,3.546c-16.188,0 -27.304,-10.616 -27.304,-29.329c-0,-17.662 9.625,-29.796 28.32,-29.796c8.588,0 14.138,1.517 17.167,2.017l-0,53.562Zm-21.217,-121.266c-21.225,-0 -37.412,6.058 -46.479,10.1l7.038,18.704c8.1,-4.062 20.716,-8.596 33.871,-8.596c16.183,0 26.787,4.534 26.787,22.225l-0,7.588c-2.538,-0.504 -11.621,-2.03 -19.704,-2.03c-31.333,0 -56.596,16.184 -56.596,48.505c-0,26.283 17.671,45.991 56.087,45.991c21.226,0 38.409,-4.029 50.034,-9.583l-0,-85.404c-0,-35.383 -22.746,-47.5 -51.038,-47.5Z" style="fill:#fff;fill-rule:nonzero;"/><path d="M1619.79,548.808c-4.534,2.513 -10.596,4.517 -17.663,4.517c-21.721,0 -31.346,-16.15 -31.346,-47.463c0,-32.362 10.121,-52.579 32.838,-52.579c6.575,0 11.637,0.513 16.171,3.05l-0,92.475Zm-15.792,-114.712c-43.867,-0 -65.538,27.783 -65.538,71.766c0,42.43 21.671,67.7 54.451,67.7c12.104,0 21.179,-2.029 26.704,-5.058l-0,8.596c-0,18.175 -9.575,29.804 -32.263,29.804c-15.1,0 -24.708,-4.041 -32.771,-7.562l-8.579,19.196c10.109,5.562 26.25,10.087 46.909,10.087c33.787,-0 56.983,-18.667 56.983,-54.567l-0,-130.383c-9.083,-5.05 -25.221,-9.579 -45.896,-9.579Z" style="fill:#fff;fill-rule:nonzero;"/><path d="M1119.32,556.383c-21.238,0 -24.759,-27.287 -24.759,-51.554c0,-24.767 3.521,-52.042 24.759,-52.042c21.216,0 24.762,27.275 24.762,52.042c0,24.267 -3.546,51.554 -24.762,51.554Zm-2,-122.287c-38.405,-0 -57.6,29.308 -57.6,70.733c-0,40.942 19.195,70.242 57.6,70.242c38.416,-0 57.604,-29.3 57.604,-70.242c-0,-41.425 -19.188,-70.733 -57.604,-70.733Z" style="fill:#fff;fill-rule:nonzero;"/><path d="M1838.72,225.158c-11.4,0 -13.813,5.409 -13.813,13.788l0,4.221l16.242,-0l0,16.816l-16.242,0l0,76.254l-24.625,0l0,-76.254l-10.204,0l0,-16.816l10.204,-0l0,-6.613c0,-18.625 12.021,-28.825 32.442,-28.825c4.2,0 7.2,0 10.796,0.604l-0,16.825l-4.8,0Z" style="fill:#fff;fill-rule:nonzero;"/><path d="M1608.4,373.479c-13.842,0 -24.625,-3.012 -31.833,-6.625l5.412,-14.417c5.388,2.417 12.579,4.83 22.804,4.83c15.621,-0 20.421,-7.217 20.421,-19.217l0,-6.029c-2.971,1.829 -9,4.216 -19.208,4.216c-22.821,0 -33.05,-11.4 -33.05,-30.016l-0,-63.054l24.645,-0l0,61.841c0,8.413 2.992,15.013 15,15.013c6.005,-0 9.642,-1.8 12.613,-2.996l0,-73.858l24.65,-0l-0,89.471c-0,29.429 -17.454,40.841 -41.454,40.841Z" style="fill:#fff;fill-rule:nonzero;"/><path d="M1542.37,337.433c-17.988,0 -27.008,-9.612 -27.008,-25.212l-0,-52.238l-10.234,0l0,-16.816l10.234,-0l-0,-19.225l24.62,-6.592l0,25.817l15.009,-0l-0,16.816l-15.009,0l0,49.838c0,8.4 4.2,10.804 10.192,10.804c3.008,-0 5.408,-0 8.421,-0.604l-0,15.604c-2.413,0.612 -7.238,1.808 -16.225,1.808Z" style="fill:#fff;fill-rule:nonzero;"/><rect x="1463.77" y="243.167" width="24.579" height="93.071" style="fill:#fff;fill-rule:nonzero;"/><path d="M1412.86,338.05c-12.017,0 -21.613,-3.013 -28.817,-6.613l6,-15.612c4.829,2.396 11.421,5.413 19.237,5.413c8.984,-0 14.392,-3.017 14.392,-10.2c0,-6.63 -4.179,-9.63 -15.017,-13.813c-18.025,-7.213 -21.629,-18.029 -21.629,-28.238c0,-14.999 11.421,-27.629 31.842,-27.629c11.396,0 19.796,3.009 26.433,6.6l-6.637,14.421c-2.967,-1.804 -9.567,-4.8 -16.804,-4.8c-8.405,0 -12.58,3.608 -12.58,9.6c0,6.621 6.575,9.009 14.996,12.604c18.596,7.213 22.792,18.029 22.792,29.442c-0,16.808 -13.808,28.825 -34.208,28.825Z" style="fill:#fff;fill-rule:nonzero;"/><path d="M1376.23,259.983c-1.792,-0.616 -7.221,-1.216 -11.383,-1.216c-4.217,-0 -7.859,0.6 -10.246,1.216l-0,76.254l-24.609,0l0,-87.67c3.617,-1.8 18.026,-6.6 34.246,-6.6c9.559,-0 11.992,0.612 15.6,1.2l-3.608,16.816Z" style="fill:#fff;fill-rule:nonzero;"/><path d="M1117.85,231.754c-9.004,0 -13.229,-5.408 -13.229,-12.017c-0,-6.587 4.225,-12.008 13.229,-12.008c8.421,0 13.204,5.421 13.204,12.008c0,6.609 -4.783,12.017 -13.204,12.017Z" style="fill:#fff;fill-rule:nonzero;"/><path d="M1197.41,336.237l-23.425,0l-31.833,-93.07l26.446,-0l11.987,43.829c1.225,4.196 4.217,15.012 5.388,20.429l0.621,-0c0.583,-5.417 3.616,-16.233 4.8,-20.429l12.608,-43.829l24.637,-0l-31.229,93.07Z" style="fill:#fff;fill-rule:nonzero;"/><rect x="1105.03" y="243.167" width="24.621" height="93.071" style="fill:#fff;fill-rule:nonzero;"/><path d="M1476.59,231.754c-9,0 -13.225,-5.408 -13.225,-12.017c-0,-6.587 4.225,-12.008 13.225,-12.008c8.404,0 13.191,5.421 13.191,12.008c0,6.609 -4.787,12.017 -13.191,12.017Z" style="fill:#fff;fill-rule:nonzero;"/><path d="M1062.76,336.237l-0,-65.45c-0,-6.608 -2.971,-13.208 -15.017,-13.208c-5.988,0 -9.588,1.188 -12.579,2.404l-0,76.254l-24.621,0l-0,-87.67c10.208,-4.2 22.808,-7.209 38.408,-7.209c28.238,0 38.471,13.813 38.471,29.429l-0,65.45l-24.662,0Z" style="fill:#fff;fill-rule:nonzero;"/><path d="M950.963,338.05c-24.046,0 -42.038,-12.612 -42.038,-37.225l-0,-82.896l25.825,0l-0,82.896c-0,11.396 5.983,17.396 16.213,17.396c10.204,-0 16.22,-6 16.22,-17.396l0,-82.896l25.805,0l-0,82.896c-0,24.613 -17.996,37.225 -42.025,37.225Z" style="fill:#fff;fill-rule:nonzero;"/><path d="M1739.88,321.825c-12.579,-0 -15.575,-14.4 -15.575,-32.417c0,-17.42 2.996,-31.829 15.575,-31.829c12.642,0 15.642,14.409 15.642,31.829c-0,18.017 -3,32.417 -15.642,32.417Zm0,-80.467c-27.591,0 -40.825,20.43 -40.825,48.05c0,28.23 13.234,48.642 40.825,48.642c27.638,0 40.867,-20.412 40.867,-48.642c-0,-27.62 -13.229,-48.05 -40.867,-48.05Z" style="fill:#fff;fill-rule:nonzero;"/><path d="M1290.9,281.608l-34.813,0c0,-18.037 7.2,-24.629 17.434,-24.629c9.604,0 17.379,5.996 17.379,23.429l-0,1.2Zm23.442,5.988c-0,-29.409 -14.996,-46.238 -40.246,-46.238c-25.8,0 -41.442,18.009 -41.442,48.05c-0,31.217 17.425,48.642 45.042,48.642c14.408,0 25.225,-3.013 33.025,-7.212l-6.004,-16.23c-6.58,3.03 -13.817,5.413 -24.605,5.413c-11.421,-0 -21.633,-4.796 -23.441,-22.796l57.671,-0l-0,-9.629Z" style="fill:#fff;fill-rule:nonzero;"/><path d="M0,1.117l0,778.05l778.054,-0l0,-778.05l-778.054,-0Zm472.075,599.35c-28.188,-0 -48.304,-6.538 -73.975,-19.584c-27.683,-14.108 -58.371,-26.196 -97.629,-26.196c-36.733,0 -75.984,13.109 -105.671,57.376c35.721,-22.142 68.938,-29.188 96.608,-29.188c29.692,-0 52.35,7.558 75.484,19.617c26.179,13.587 48.816,23.145 81.533,23.145c31.7,0 67.429,-12.058 98.125,-52.308c-24.654,20.6 -50.817,27.138 -74.475,27.138Zm-156.508,-61.363c25.154,0 54.35,7.029 87.062,25.163l0,-93.588l-13.587,-17.146l-0,-129.82l26.666,-41.263l-11.071,39.746c7.551,-0.979 15.1,-1.488 23.155,-1.488c26.17,0 50.312,4.517 70.954,12.584l26.671,-24.663l-0,-66.925c-17.613,-8.062 -36.725,-14.608 -56.871,-19.629c-12.079,-3.033 -25.158,-5.033 -38.238,-6.537l0,-57.884c-14.096,-2.012 -28.687,-3.012 -43.779,-3.012c-14.1,-0 -28.187,1 -41.775,2.516l0,54.838c-13.083,1.525 -25.662,4.037 -37.737,7.046l-0,-54.329c-21.646,6.037 -42.271,14.587 -60.892,25.154l-0,112.733l25.654,24.646l-7.537,126.792l-20.638,20.641l0,73.463l7.054,7.55c17.105,-9.038 38.738,-16.588 64.909,-16.588Zm132.858,-199.275c-5.542,0 -10.067,4.525 -10.067,10.559l-3.029,94.612l26.679,0l-3.537,-94.612c-0,-6.034 -4,-10.559 -10.046,-10.559Zm-136.883,10.559c-0,-6.034 4.533,-10.559 10.07,-10.559c5.542,0 10.059,4.525 10.059,10.559l3.533,94.612l-26.692,0l3.03,-94.612Zm213.875,-162.017c-17.613,-9.579 -34.225,-17.125 -56.871,-22.659l-0,46.284c20.146,4.533 39.258,11.587 56.871,19.629l-0,-43.254Z" style="fill:#fff;"/></g></svg>